<?xml version="1.0" encoding="UTF-8" standalone="no"?> <svg id="Layer_1" data-name="Layer 1" xmlns="http://www.w3.org/2000/svg" viewBox="0 0 128 128"><defs><style>.cls-1{fill:#2d3e50;}</style></defs><title>n</title><path class="cls-1" d="M125.56919,76.6359l-.04414-.0295L93.0626,56.453l-4.44246-2.758L76.80551,46.36025c.00411-4.02116.009-7.41224.01322-10.27722q0-1.79254.00445-3.58062c.00666-6.59706.10439-8.604-1.23057-15.11221C74.38561,11.50583,71.28138,2.8998,64,2.84458c-7.28138.05522-10.38561,8.66124-11.59261,14.54561-1.335,6.50821-1.23723,8.51515-1.23057,15.11221q.00334,1.7892.00445,3.58062c.00423,2.865.00911,6.25607.01322,10.27722L39.37986,53.695,34.9374,56.453,2.47495,76.6064l-.04414.0295a3.829,3.829,0,0,0,2.79942,6.89623l45.96663-2.36173q-.0047,6.1387-.01337,13.13776a46.51946,46.51946,0,0,0,.7459,7.73449L37.69914,109.8046a2.73717,2.73717,0,0,0,1.54191,5.13013c.07231-.00621,12.48373.00515,16.4395.00892.94977,2.13967,1.99482,4.192,2.94407,5.93933.51755.95735,1.00843,1.82141,1.43713,2.56109l.00445.00445a5.38646,5.38646,0,0,0,7.86761,0l.00445-.00445c.4287-.73967.91958-1.60374,1.43713-2.56109.94924-1.74738,1.9943-3.79966,2.94407-5.93933,3.95577-.00377,16.36718-.01513,16.4395-.00892a2.73717,2.73717,0,0,0,1.54191-5.13013l-14.23025-7.76193a46.51946,46.51946,0,0,0,.7459-7.73449q-.00881-7.00945-.01337-13.13776l45.96663,2.36173a3.83061,3.83061,0,0,0,2.79942-6.89623Z"/></svg>